<?xml version="1.0" standalone="no"?>
<!DOCTYPE svg PUBLIC "-//W3C//DTD SVG 20010904//EN"
 "http://www.w3.org/TR/2001/REC-SVG-20010904/DTD/svg10.dtd">
<svg version="1.0" xmlns="http://www.w3.org/2000/svg"
 width="640.000000pt" height="1280.000000pt" viewBox="0 0 640.000000 1280.000000"
 preserveAspectRatio="xMidYMid meet">
<metadata>
Created by potrace 1.15, written by Peter Selinger 2001-2017
</metadata>
<g transform="translate(0.000000,1280.000000) scale(0.100000,-0.100000)"
fill="#03a9f4" stroke="none">
<path d="M3168 12781 l-27 -22 -3 -522 -3 -522 -53 -310 c-200 -1179 -267
-1567 -402 -2325 -28 -157 -60 -337 -71 -400 -76 -432 -268 -1443 -368 -1940
-255 -1260 -468 -2116 -588 -2355 -11 -22 -23 -52 -27 -68 -4 -15 -15 -36 -26
-47 -29 -29 -26 -74 6 -99 15 -12 34 -21 44 -21 26 0 70 39 70 62 0 26 73 93
128 118 50 23 143 26 203 8 51 -15 115 -70 141 -122 31 -62 47 -76 88 -76 41
0 68 24 90 78 17 43 89 105 138 120 60 18 154 15 204 -7 24 -10 59 -35 78 -55
27 -29 34 -43 32 -71 -5 -63 61 -101 123 -72 33 16 55 63 40 86 -15 25 69 102
128 116 l27 7 0 -1189 0 -1189 -31 -30 c-65 -61 -68 -77 -62 -373 9 -399 -24
-605 -128 -819 -101 -207 -248 -302 -469 -302 -300 1 -481 167 -556 513 -9 40
-19 146 -23 237 -7 178 -14 201 -68 251 -98 91 -251 79 -323 -26 -44 -63 -54
-150 -40 -328 36 -471 225 -810 539 -971 163 -83 283 -111 476 -110 110 0 159
5 229 22 282 70 502 256 635 537 123 258 180 593 168 980 -7 219 -20 301 -53
351 l-24 35 0 1167 c1 1036 2 1165 16 1147 8 -11 19 -37 25 -58 29 -108 129
-102 158 9 15 54 78 118 138 138 69 24 158 21 218 -8 57 -26 112 -83 120 -124
19 -86 62 -124 113 -100 21 10 32 28 47 77 37 114 120 171 249 171 75 0 148
-31 193 -83 33 -37 37 -48 47 -109 10 -56 44 -78 121 -78 46 0 69 5 85 18 29
23 29 71 2 110 -283 400 -749 2570 -1361 6342 -39 239 -92 566 -118 725 l-47
290 -6 597 c-5 556 -6 599 -23 615 -14 14 -38 19 -105 21 -77 3 -90 1 -114
-17z"/>
</g>
</svg>
