<?xml version="1.0" standalone="no"?>
<!DOCTYPE svg PUBLIC "-//W3C//DTD SVG 20010904//EN"
 "http://www.w3.org/TR/2001/REC-SVG-20010904/DTD/svg10.dtd">
<svg version="1.0" xmlns="http://www.w3.org/2000/svg"
 width="1280.000000pt" height="1232.000000pt" viewBox="0 0 1280.000000 1232.000000"
 preserveAspectRatio="xMidYMid meet">
<metadata>
Created by potrace 1.15, written by Peter Selinger 2001-2017
</metadata>
<g transform="translate(0.000000,1232.000000) scale(0.100000,-0.100000)"
fill="#03a9f4" stroke="none">
<path d="M6371 12299 c-60 -36 -105 -109 -126 -204 l-11 -50 -150 -7 c-1769
-85 -3399 -780 -4559 -1943 -691 -693 -1178 -1521 -1424 -2425 -22 -80 -50
-172 -64 -205 -13 -33 -27 -72 -30 -86 l-7 -26 443 -7 c243 -3 819 -9 1279
-12 l837 -7 -6 -27 -5 -28 203 -6 c210 -6 2371 -23 2378 -19 2 2 0 19 -6 38
l-11 35 247 0 c136 0 417 -3 623 -7 l376 -6 6 -351 c3 -193 11 -805 16 -1361
25 -2508 29 -2923 32 -3280 l3 -380 -46 -3 -46 -3 -6 -256 c-15 -571 -6 -766
48 -988 94 -392 340 -626 712 -675 145 -20 286 9 444 91 217 113 353 331 399
644 6 39 13 166 17 283 l6 212 -156 0 -157 0 0 -107 c0 -367 -49 -572 -166
-689 -61 -62 -110 -89 -212 -115 -66 -17 -87 -18 -145 -9 -272 42 -404 200
-464 556 -16 97 -18 161 -15 587 l2 477 -48 0 -49 0 -7 678 c-4 372 -11 1066
-16 1542 -5 476 -15 1377 -21 2003 -7 625 -9 1140 -6 1143 4 4 386 1 849 -5
464 -7 1284 -16 1823 -22 539 -5 1439 -13 2000 -19 561 -5 1152 -11 1313 -12
l293 -3 -6 35 c-3 19 -8 43 -11 53 -4 13 1 17 26 17 26 0 30 3 26 23 -102 476
-286 980 -513 1401 -848 1574 -2451 2715 -4374 3115 -377 78 -763 127 -1152
147 l-137 7 -6 26 c-26 120 -80 212 -139 237 -46 19 -64 18 -104 -7z m-3776
-4881 c-10 -31 -25 -47 -25 -26 0 9 -3 23 -6 32 -4 12 0 16 16 16 18 0 20 -4
15 -22z m5060 -45 c-11 -46 -18 -46 -29 0 -5 23 -3 27 15 27 18 0 20 -4 14
-27z"/>
</g>
</svg>
